<?xml version="1.0" standalone="no"?>
<!DOCTYPE svg PUBLIC "-//W3C//DTD SVG 20010904//EN"
 "http://www.w3.org/TR/2001/REC-SVG-20010904/DTD/svg10.dtd">
<svg version="1.0" xmlns="http://www.w3.org/2000/svg"
 width="1024.000000pt" height="1024.000000pt" viewBox="0 0 1024.000000 1024.000000"
 preserveAspectRatio="xMidYMid meet">

<g transform="translate(0.000000,1024.000000) scale(0.100000,-0.100000)"
fill="#000000" stroke="none">
<path d="M6259 8535 c-271 -59 -562 -202 -794 -388 -88 -71 -1283 -1269 -1359
-1362 -208 -255 -331 -505 -397 -810 -30 -136 -33 -166 -33 -320 0 -148 3
-187 27 -300 40 -185 80 -298 169 -475 166 -332 429 -612 708 -754 58 -29 129
-61 158 -71 48 -15 55 -15 76 -2 13 9 30 37 40 67 34 103 83 158 188 211 102
51 90 73 -72 138 -150 61 -274 147 -401 279 -195 201 -321 434 -370 684 -20
98 -17 395 4 496 34 160 98 309 198 462 54 84 138 172 708 741 578 578 657
653 746 712 158 104 341 178 515 208 93 16 334 16 419 0 178 -34 359 -109 515
-212 92 -61 255 -214 336 -316 122 -151 214 -339 262 -528 20 -78 22 -116 23
-290 0 -188 -2 -206 -28 -300 -54 -196 -134 -357 -251 -505 -32 -41 -224 -241
-426 -445 -202 -203 -373 -380 -379 -392 -9 -18 -6 -45 14 -132 18 -79 25
-138 25 -213 0 -109 13 -176 35 -184 7 -3 26 1 42 10 44 23 1002 991 1075
1086 88 116 137 189 192 291 187 347 253 743 182 1098 -77 380 -246 692 -536
982 -285 286 -593 458 -956 535 -102 21 -138 24 -332 23 -187 -1 -231 -4 -323
-24z"/>
<path d="M4885 6380 c-83 -83 -158 -162 -166 -176 -12 -23 -11 -28 4 -39 10
-7 55 -16 100 -20 135 -11 320 -52 429 -96 177 -70 279 -140 428 -295 183
-189 294 -384 362 -634 20 -76 22 -106 22 -295 -1 -203 -2 -214 -31 -318 -27
-95 -29 -109 -16 -122 12 -12 52 -15 218 -15 112 0 215 4 228 9 21 8 28 22 45
98 60 262 61 455 6 711 -71 334 -262 674 -518 926 -207 204 -445 327 -755 392
-199 41 -178 49 -356 -126z"/>
<path d="M2784 5438 c-600 -602 -664 -679 -795 -953 -114 -239 -164 -457 -164
-715 0 -190 17 -301 73 -480 89 -288 243 -539 477 -775 272 -276 563 -444 925
-532 109 -26 127 -28 350 -28 226 0 240 1 350 29 223 56 419 140 593 257 110
74 207 153 224 183 13 22 19 519 7 550 -3 9 -13 16 -22 16 -8 0 -74 -57 -146
-127 -250 -243 -452 -359 -737 -424 -148 -34 -369 -34 -519 0 -107 24 -212 61
-310 108 -264 128 -536 401 -670 673 -177 360 -172 805 13 1161 100 191 172
275 665 766 221 221 292 297 292 316 0 13 -9 50 -21 83 -16 46 -22 92 -25 209
-6 178 -9 195 -32 195 -10 0 -244 -227 -528 -512z"/>
<path d="M5289 4156 c-102 -27 -181 -95 -228 -196 l-26 -55 0 -855 0 -855 27
-55 c15 -30 41 -71 57 -91 38 -46 130 -94 206 -109 43 -8 438 -10 1435 -8
1286 3 1378 4 1427 21 99 33 187 121 220 220 16 48 18 119 21 847 2 569 0 812
-8 855 -24 123 -88 206 -199 259 l-66 31 -1410 2 c-1096 1 -1420 -1 -1456 -11z
m356 -330 c67 -28 65 -8 65 -686 0 -597 0 -610 20 -630 19 -19 33 -20 335 -20
338 0 355 -2 381 -51 31 -60 11 -124 -46 -154 -43 -22 -847 -22 -894 0 -69 33
-66 -4 -66 770 0 638 1 699 17 726 32 54 116 75 188 45z m1005 -411 c17 -9 38
-32 48 -53 11 -20 54 -179 96 -352 83 -337 112 -440 126 -440 17 0 28 36 119
385 50 193 100 369 111 393 46 98 198 109 263 20 12 -16 54 -158 104 -345 109
-413 121 -453 138 -453 18 0 20 8 120 415 48 193 94 365 102 384 50 105 233
63 233 -54 0 -23 -52 -206 -206 -720 -31 -104 -60 -204 -65 -222 -12 -40 -52
-89 -90 -108 -35 -19 -119 -19 -163 -1 -68 28 -68 30 -196 486 -39 140 -76
268 -82 283 -29 73 -48 21 -209 -563 -38 -139 -59 -177 -109 -202 -49 -25
-136 -24 -178 2 -35 21 -67 67 -81 115 -5 17 -26 86 -46 155 -21 69 -46 152
-55 185 -10 33 -50 165 -89 294 -92 302 -94 352 -16 394 38 21 88 21 125 2z"/>
</g>
</svg>
